<svg width="22" height="22" viewBox="0 0 22 22" fill="none" xmlns="http://www.w3.org/2000/svg">
<path d="M4.25781 8.74707C5.03966 8.74707 5.80396 8.51522 6.45405 8.08085C7.10414 7.64647 7.61082 7.02908 7.91002 6.30674C8.20922 5.5844 8.28751 4.78956 8.13498 4.02273C7.98244 3.2559 7.60595 2.55152 7.05309 1.99867C6.50024 1.44581 5.79586 1.06931 5.02903 0.91678C4.2622 0.764248 3.46735 0.842533 2.74502 1.14174C2.02268 1.44094 1.40528 1.94762 0.970909 2.59771C0.536534 3.2478 0.304688 4.01209 0.304688 4.79395C0.305825 5.84203 0.722679 6.84686 1.46379 7.58797C2.20489 8.32908 3.20973 8.74593 4.25781 8.74707ZM4.25781 2.21582C4.76772 2.21582 5.26617 2.36703 5.69014 2.65031C6.11411 2.9336 6.44455 3.33625 6.63969 3.80734C6.83482 4.27843 6.88587 4.79681 6.7864 5.29691C6.68692 5.79702 6.44138 6.2564 6.08082 6.61695C5.72026 6.97751 5.26088 7.22305 4.76078 7.32253C4.26067 7.42201 3.7423 7.37095 3.27121 7.17582C2.80011 6.98069 2.39747 6.65024 2.11418 6.22627C1.83089 5.8023 1.67969 5.30385 1.67969 4.79395C1.68046 4.11042 1.95233 3.45512 2.43566 2.97179C2.91898 2.48847 3.57429 2.21659 4.25781 2.21582ZM20.1106 1.79731C19.4981 1.18489 18.6675 0.840832 17.8014 0.840832C16.9353 0.840832 16.1047 1.18489 15.4923 1.79731L15.257 2.03256C14.3486 2.94129 13.4753 3.88443 12.6389 4.8599L12.6253 4.8758L6.65998 12.7632L2.9923 16.431C2.64672 16.2324 2.24077 16.1661 1.84999 16.2445C1.45921 16.3228 1.11019 16.5405 0.867868 16.8569C0.625548 17.1733 0.506425 17.567 0.53266 17.9647C0.558895 18.3624 0.728703 18.7371 1.01049 19.0189L2.75158 20.76C3.03356 21.0415 3.40819 21.2111 3.80583 21.2373C4.20346 21.2634 4.59705 21.1442 4.91343 20.9019C5.22981 20.6596 5.44745 20.3107 5.5259 19.92C5.60435 19.5293 5.53827 19.1234 5.33994 18.7778L9.00259 15.1152L16.7327 9.49657L16.7688 9.46847C17.9279 8.50148 19.043 7.48282 20.1105 6.41559C20.722 5.80268 21.0654 4.97224 21.0655 4.10645C21.0655 3.24067 20.7221 2.41022 20.1106 1.79731ZM19.1382 5.44333C18.1053 6.47589 17.0267 7.46174 15.9057 8.3979L8.10678 14.0666L3.43513 18.7381L4.10424 19.4073C4.12965 19.4322 4.14986 19.4619 4.16373 19.4946C4.17759 19.5273 4.18483 19.5625 4.18502 19.5981C4.1852 19.6336 4.17834 19.6689 4.16482 19.7018C4.1513 19.7346 4.13139 19.7645 4.10625 19.7897C4.0811 19.8148 4.05123 19.8347 4.01834 19.8483C3.98545 19.8618 3.95021 19.8686 3.91465 19.8685C3.8791 19.8683 3.84393 19.8611 3.81118 19.8472C3.77844 19.8333 3.74876 19.8131 3.72388 19.7877L1.98279 18.0467C1.93234 17.9962 1.90399 17.9278 1.90399 17.8565C1.90399 17.7851 1.93232 17.7167 1.98277 17.6662C2.03321 17.6158 2.10163 17.5874 2.17297 17.5874C2.24432 17.5874 2.31274 17.6158 2.36319 17.6662L3.03234 18.3354L7.69961 13.6684L13.6968 5.73891C14.506 4.79575 15.3508 3.88372 16.2295 3.00481L16.4647 2.7696C16.64 2.59301 16.8485 2.45277 17.0782 2.35693C17.3078 2.26108 17.5541 2.21152 17.803 2.21107C18.0518 2.21063 18.2983 2.25931 18.5283 2.35434C18.7583 2.44936 18.9673 2.58886 19.1432 2.76482C19.3192 2.94078 19.4587 3.14975 19.5537 3.37974C19.6487 3.60973 19.6974 3.85622 19.697 4.10507C19.6965 4.35392 19.647 4.60023 19.5511 4.82988C19.4553 5.05953 19.315 5.268 19.1384 5.44333H19.1382Z" fill="white"/>
</svg>
